<svg xmlns="http://www.w3.org/2000/svg" viewBox="0 0 40 40"><path fill="white" d="M39.1803 0.00495592C31.3719 -0.135044 22.4669 3.94662 16.8303 10.2783C11.4436 10.38 6.19859 12.5883 2.33693 16.45C2.11193 16.6716 2.03193 17.0033 2.13026 17.3033C2.23026 17.605 2.49026 17.8233 2.80359 17.8683L9.22693 18.7883L8.43359 19.6766C8.13859 20.0066 8.15359 20.5083 8.46693 20.8216L19.1786 31.5333C19.3403 31.695 19.5536 31.7766 19.7686 31.7766C19.9669 31.7766 20.1653 31.7066 20.3236 31.565L21.2119 30.7716L22.1319 37.195C22.1769 37.5083 22.4236 37.7383 22.7219 37.8383C22.7986 37.8633 22.8786 37.875 22.9603 37.875C23.1969 37.875 23.4386 37.7716 23.6053 37.6066C27.4136 33.7983 29.6219 28.5533 29.7236 23.1666C36.0619 17.5183 40.1769 8.61662 39.9953 0.818289C39.9836 0.374956 39.6253 0.0166226 39.1803 0.00495592ZM31.5003 14.3916C30.6886 15.2033 29.6219 15.61 28.5536 15.61C27.4853 15.61 26.4186 15.2033 25.6069 14.3916C23.9836 12.7666 23.9836 10.1233 25.6069 8.49829C27.2319 6.87329 29.8753 6.87329 31.5003 8.49829C33.1253 10.1233 33.1253 12.7683 31.5003 14.3916Z"></path><path fill="white" d="M4.5401 28.1746C2.75676 29.9579 0.308429 38.0146 0.0350957 38.9263C-0.0532377 39.2196 0.028429 39.5379 0.243429 39.7546C0.403429 39.9146 0.615096 39.9996 0.833429 39.9996C0.913429 39.9996 0.993429 39.9879 1.07343 39.9646C1.9851 39.6913 10.0418 37.2429 11.8251 35.4596C13.8334 33.4512 13.8334 30.1829 11.8251 28.1746C9.8151 26.1662 6.54843 26.1679 4.5401 28.1746Z"></path></svg>